# xmcd CD database file
#
# Track frame offsets:
#	150
#	19582
#	36461
#	51736
#	67396
#	89339
#	113604
#
# Disc length: 1792 seconds
#
# Revision: 0
# Processed by: cddbd v1.5.2PL0 Copyright (c) Steve Scherf et al.
# Submitted via: CDex 1.70beta2
#
DISCID=6406fe07
DTITLE=北浪 良佳 - SONGS
DYEAR=2009
DGENRE=Jazz
TTITLE0=翼
TTITLE1=ソルヴェイグの歌
TTITLE2=魅惑のワルツ
TTITLE3=○と△の歌
TTITLE4=オーディナリー・デイズ
TTITLE5=蘇州夜曲
TTITLE6=遠く離れて
EXTD=YEAR: 2009
EXTT0=
EXTT1=
EXTT2=
EXTT3=
EXTT4=
EXTT5=
EXTT6=
PLAYORDER=
